<svg xmlns="http://www.w3.org/2000/svg" height="24px" viewBox="0 -960 960 960" width="24px" fill="#1f1f1f"><path d="M480-192.46q120.33-110.08 178.73-198.59 58.4-88.52 58.4-161.91 0-107.32-68.66-175.75Q579.8-797.13 480-797.13t-168.47 68.42q-68.66 68.43-68.66 175.75 0 73.39 58.4 161.79 58.4 88.39 178.73 198.71Zm-29.79 86.92q-14.84-5.24-26.56-15.72-66.43-60.72-117.39-117.96-50.96-57.24-85.05-111.21-34.1-53.98-51.72-104.56-17.62-50.58-17.62-97.97 0-153.34 99.01-244.26 99.01-90.91 229.12-90.91t229.12 90.91q99.01 90.92 99.01 244.26 0 47.39-17.62 97.97t-51.72 104.56q-34.09 53.97-85.05 111.21-50.96 57.24-117.39 117.96-11.72 10.48-26.56 15.72-14.83 5.24-29.79 5.24-14.96 0-29.79-5.24ZM480-560Zm58.29 58.29q24.1-24.09 24.1-58.29t-24.1-58.29q-24.09-24.1-58.29-24.1t-58.29 24.1q-24.1 24.09-24.1 58.29t24.1 58.29q24.09 24.1 58.29 24.1t58.29-24.1Z"/></svg>